<?xml version="1.0" standalone="no"?>
<!DOCTYPE svg PUBLIC "-//W3C//DTD SVG 20010904//EN"
 "http://www.w3.org/TR/2001/REC-SVG-20010904/DTD/svg10.dtd">
<svg version="1.0" xmlns="http://www.w3.org/2000/svg"
 width="1070.000000pt" height="1070.000000pt" viewBox="0 0 1070.000000 1070.000000"
 preserveAspectRatio="xMidYMid meet">
<metadata>
Created by potrace 1.11, written by Peter Selinger 2001-2013
</metadata>
<g transform="translate(0.000000,1070.000000) scale(0.100000,-0.100000)"
fill="#000000" stroke="none">
<path d="M0 5350 l0 -5350 5350 0 5350 0 0 5350 0 5350 -5350 0 -5350 0 0
-5350z m1950 4263 c-14 -9 -70 -62 -125 -117 -244 -247 -345 -557 -332 -1019
7 -245 39 -395 121 -569 63 -133 187 -288 296 -371 l35 -27 -416 0 -416 0 -57
113 c-95 190 -160 419 -185 649 -16 142 -14 447 4 585 34 264 107 483 233 696
l46 77 410 -1 c382 0 409 -1 386 -16z m2880 -193 l0 -210 565 0 565 0 0 -260
0 -260 -565 0 -565 0 2 -332 3 -333 563 -3 562 -2 0 -255 0 -255 -867 2 -868
3 -1 1050 c0 578 1 1053 3 1058 2 4 139 7 304 7 l299 0 0 -210z m-1140 -1310
l0 -600 -305 0 -305 0 0 340 0 340 -235 0 -235 0 0 260 0 260 540 0 540 0 0
-600z m1876 -1767 c274 -351 509 -649 521 -663 l22 -25 1 663 0 662 285 0 285
0 0 -1045 0 -1045 -362 2 -361 3 -564 735 c-310 404 -570 742 -578 750 -13 12
-15 -79 -15 -738 l0 -752 -285 0 -285 0 0 1045 0 1045 418 0 419 0 499 -637z
m2544 632 c0 -2 -20 -33 -45 -69 -95 -135 -165 -319 -202 -531 -14 -79 -18
-156 -17 -370 0 -293 14 -418 70 -612 57 -195 168 -380 281 -464 23 -18 43
-35 43 -38 0 -3 -172 -5 -382 -4 l-383 1 -53 104 c-60 119 -113 272 -147 432
-43 202 -50 287 -50 586 0 310 12 415 70 615 30 103 98 278 126 324 l19 31
335 0 c184 0 335 -2 335 -5z m1614 -40 c34 -73 94 -270 114 -376 37 -191 46
-299 46 -539 -1 -309 -28 -505 -104 -745 -32 -102 -149 -353 -174 -374 -9 -8
-131 -12 -415 -14 -220 -1 -401 -1 -401 0 0 1 26 20 58 42 80 54 188 173 240
263 135 238 200 618 172 1006 -25 352 -87 542 -246 760 l-17 22 354 -2 354 -3
19 -40z m-6384 -3357 c146 -428 267 -778 270 -778 3 0 131 350 285 778 l281
777 313 3 313 2 -6 -22 c-3 -13 -183 -482 -399 -1043 l-394 -1020 -400 -3
-399 -2 -378 1022 c-207 563 -379 1033 -383 1046 l-5 22 318 -2 319 -3 265
-777z m3515 -253 c226 -570 412 -1040 413 -1045 3 -7 -107 -9 -318 -8 l-322 3
-31 85 -32 85 -575 0 -575 0 -32 -85 -31 -85 -320 -3 -320 -2 43 111 c24 61
209 532 411 1045 l367 934 456 0 456 0 410 -1035z m-5159 -1646 c57 -53 59
-65 59 -314 0 -214 -1 -232 -21 -265 -63 -109 -215 -109 -278 0 -20 33 -21 51
-21 265 0 249 2 261 59 314 48 45 155 45 202 0z m-696 -56 c18 -49 48 -132 67
-186 20 -54 39 -95 43 -90 4 4 35 88 70 186 l63 177 38 0 39 0 0 -345 0 -345
-40 0 -40 0 -2 238 -3 237 -51 -150 c-49 -146 -51 -150 -79 -150 -27 0 -30 4
-74 137 -25 75 -49 140 -53 144 -5 4 -8 -97 -8 -225 l0 -232 -37 3 -38 3 -3
343 -2 342 39 0 39 0 32 -87z m1117 61 c46 -33 63 -79 63 -167 0 -87 -15 -134
-54 -164 l-25 -20 49 -149 c28 -81 50 -152 50 -157 0 -4 -19 -7 -41 -5 l-41 3
-47 145 -47 145 -37 3 -36 3 -3 -148 -3 -148 -37 -3 -38 -3 0 347 0 346 109
-4 c91 -3 115 -7 138 -24z m451 -11 l-3 -38 -87 -3 -88 -3 0 -114 0 -115 75 0
75 0 0 -35 0 -35 -75 0 -75 0 0 -115 0 -115 91 0 90 0 -3 -37 -3 -38 -130 0
-130 0 -3 343 -2 342 135 0 136 0 -3 -37z m547 -3 l0 -35 -57 -3 -58 -3 0
-304 0 -305 -40 0 -40 0 0 305 0 304 -57 3 c-52 3 -58 5 -61 26 -8 52 -4 53
160 50 l153 -3 0 -35z m165 -110 l0 -150 75 0 75 0 0 150 0 150 40 0 40 0 0
-346 0 -345 -37 3 -38 3 -3 153 -3 152 -74 0 -74 0 -3 -152 -3 -153 -37 -3
-38 -3 0 345 0 346 40 0 40 0 0 -150z m540 144 c0 -4 34 -152 75 -329 41 -178
75 -330 75 -339 0 -12 -10 -16 -40 -16 -33 0 -40 4 -45 23 -3 12 -11 49 -18
82 l-12 60 -77 3 c-87 3 -75 15 -101 -103 l-12 -60 -43 -3 c-23 -2 -42 0 -42
4 0 8 149 652 155 672 4 12 85 18 85 6z m383 -221 l86 -228 1 228 0 228 40 -3
41 -3 0 -340 0 -340 -34 -3 c-26 -2 -36 2 -41 15 -4 10 -42 108 -83 218 -42
110 -80 204 -84 210 -5 5 -9 -89 -9 -219 l0 -227 -37 3 -38 3 -3 343 -2 342
39 0 39 0 85 -227z m747 187 l0 -40 -60 0 -60 0 0 -306 0 -305 -37 3 -38 3 -3
302 -2 302 -58 3 c-51 3 -57 5 -60 26 -7 51 -4 52 163 52 l155 0 0 -40z m160
-110 l0 -150 75 0 75 0 0 150 0 150 40 0 40 0 0 -346 0 -345 -37 3 -38 3 -3
153 -3 152 -74 0 -75 0 0 -155 0 -155 -40 0 -40 0 0 345 0 345 40 0 40 0 0
-150z m438 -192 l-3 -343 -37 -3 -38 -3 0 345 0 346 40 0 40 0 -2 -342z m368
312 c32 -30 54 -78 54 -120 0 -28 -2 -30 -38 -30 -36 0 -38 2 -50 45 -13 51
-43 72 -86 61 -38 -9 -58 -47 -58 -107 1 -65 16 -81 113 -123 100 -43 113 -63
117 -181 5 -114 -11 -156 -69 -185 -49 -26 -133 -26 -178 -2 -42 23 -71 74
-71 124 0 38 0 38 40 38 33 0 40 -3 40 -20 0 -86 114 -120 149 -44 14 32 14
116 0 147 -12 26 -18 30 -121 76 -49 21 -71 37 -82 60 -41 78 -28 197 27 248
42 40 51 43 124 40 50 -2 68 -8 89 -27z"/>
<path d="M5787 3532 c-108 -335 -197 -614 -197 -620 0 -9 99 -12 401 -12 l400
0 -6 23 c-28 91 -389 1195 -394 1204 -4 7 -95 -261 -204 -595z"/>
<path d="M1553 1625 c-35 -24 -46 -106 -41 -294 3 -91 10 -178 16 -194 24 -58
99 -61 128 -4 22 41 32 299 16 402 -15 96 -61 131 -119 90z"/>
<path d="M1950 1510 l0 -120 50 0 c79 0 110 49 97 156 -7 65 -28 84 -94 84
l-53 0 0 -120z"/>
<path d="M3744 1409 l-31 -149 64 0 c61 0 63 1 58 23 -3 12 -16 78 -30 146
-14 69 -26 126 -28 127 -1 1 -16 -65 -33 -147z"/>
</g>
</svg>
